<svg>
<path d="M2671.47 868.469C2656.44 868.21 2641.36 870.509 2626.91 874.594C2596.74 883.119 2569.01 899.065 2544.44 918.312C2536.98 924.152 2529.79 930.31 2522.88 936.781C2514.23 944.871 2505.99 953.384 2498.22 962.312C2488.8 973.131 2480.1 984.629 2472.38 996.719C2464.72 1008.7 2457.78 1021.22 2451.41 1033.94C2444.19 1048.34 2437.73 1063.08 2431.09 1077.75C2427.78 1085.08 2424.42 1092.4 2420.94 1099.66C2417.48 1106.86 2413.73 1113.91 2410.19 1121.06C2401.38 1138.86 2391.9 1156.38 2380.72 1172.81C2373.4 1183.56 2365.28 1193.8 2357.06 1203.88C2337.65 1227.68 2316.17 1249.71 2293.44 1270.34C2227.84 1329.87 2151.12 1376.5 2071.56 1414.84C2046.27 1427.03 2020.52 1438.4 1994.41 1448.72C1980.62 1454.16 1966.65 1459.44 1952.5 1463.88C1944.06 1466.52 1935.49 1468.83 1926.91 1470.97C1910.64 1475.03 1894.13 1478.27 1877.44 1479.94C1872.28 1480.45 1867.09 1480.81 1861.91 1480.97C1836.2 1481.76 1807.02 1477.87 1788.47 1458.19C1785.15 1454.67 1782.2 1450.75 1779.94 1446.47C1775.72 1438.48 1773.6 1429.54 1771.62 1420.78C1770 1413.57 1768.37 1406.41 1766.19 1399.34C1765.1 1397.04 1761.33 1396.51 1757.78 1398.19C1754.23 1399.87 1752.25 1403.1 1753.34 1405.41C1754.89 1410.43 1756.19 1415.49 1757.34 1420.62C1759.78 1431.44 1761.95 1442.54 1766.97 1452.53C1769.57 1457.71 1773.06 1462.44 1777.03 1466.66C1796.68 1487.5 1827.16 1492.42 1854.53 1491.94C1881.73 1491.46 1908.74 1486.09 1934.94 1479.06C1940.81 1477.49 1946.64 1475.74 1952.47 1474.03C1959.84 1471.87 1967.21 1469.74 1974.53 1467.41C1989.03 1462.78 2003.38 1457.67 2017.62 1452.31C2118.19 1414.49 2215.21 1365.12 2300.12 1298.81C2326.61 1278.13 2351.85 1255.69 2375.28 1231.59C2390.39 1216.06 2404.97 1199.9 2418.34 1182.84C2432.57 1164.7 2445.01 1145.3 2456.25 1125.19C2460.73 1117.16 2464.77 1108.88 2469 1100.72C2479.32 1080.83 2489.56 1060.89 2500.75 1041.47C2508.56 1027.91 2516.44 1014.27 2525.69 1001.62C2534.06 990.181 2543.52 979.528 2553.66 969.625C2565.16 958.387 2577.77 948.184 2591.5 939.781C2608.17 929.574 2627.47 921.388 2647.41 922.594C2653.4 922.956 2659.19 924.275 2664.88 926.156C2674.22 933.584 2691.04 927.937 2702.47 913.562C2713.9 899.188 2715.59 881.522 2706.25 874.094C2699.77 872.089 2693.2 870.522 2686.47 869.594C2681.49 868.907 2676.48 868.555 2671.47 868.469Z" fill="#010000" stroke="none"/>

<g opacity="1" >
<path d="M2717.69 893C2711.49 893.205 2704.7 894.849 2698.06 898.031C2680.35 906.516 2670.48 922.709 2676 934.219C2677.87 939.891 2679.43 945.632 2680.56 951.5C2684.37 971.304 2684.07 991.671 2682.94 1011.72C2681.5 1037.16 2678.46 1062.52 2678.44 1088.03C2678.43 1094.03 2678.53 1100.03 2678.44 1106.03C2678.24 1118.42 2677.59 1130.81 2676.56 1143.16C2674.12 1172.57 2669.57 1201.85 2663.03 1230.62C2659.94 1244.24 2656.34 1257.72 2652.44 1271.12C2646.81 1290.44 2640.33 1309.56 2632.5 1328.09C2628.59 1337.35 2624.33 1346.53 2619.75 1355.47C2615.24 1364.27 2610.29 1372.84 2605.19 1381.31C2595.78 1396.93 2585.7 1412.14 2574.28 1426.38C2556.19 1448.91 2534.61 1468.16 2512.47 1486.59C2497.65 1498.93 2482.54 1510.95 2467.59 1523.12C2442.34 1543.69 2416.99 1564.24 2389.5 1581.78C2368.87 1594.95 2346.77 1606.21 2323.22 1613.12C2310.56 1616.84 2297.51 1619.19 2284.47 1621.09C2259.81 1624.69 2234.73 1625.65 2209.84 1625.25C2176.85 1624.72 2143.94 1621.66 2111.25 1617.28C2090.4 1614.49 2069.52 1611.37 2048.91 1607.16C2022.21 1601.7 1995.87 1594.47 1970.22 1585.25C1956.04 1580.16 1942.01 1574.51 1928.38 1568.09C1924 1566.04 1919.74 1563.79 1915.47 1561.53C1906.6 1556.84 1897.92 1551.76 1889.44 1546.41C1877.75 1539.03 1866.45 1531.05 1855.69 1522.38C1850.32 1518.05 1844.94 1513.66 1840.19 1508.66C1832.39 1500.45 1826.14 1490.91 1820.47 1481.16C1812.37 1467.23 1805.37 1452.68 1796.62 1439.12C1788.36 1426.32 1778.3 1414.09 1765.19 1406C1755.88 1400.26 1745.08 1397.51 1734.38 1395.84C1724.82 1394.35 1715.15 1393.7 1705.53 1392.69C1696.75 1391.76 1687.99 1390.48 1679.56 1387.78C1677.69 1386.29 1674.35 1387.44 1672.06 1390.31C1669.78 1393.19 1669.41 1396.73 1671.28 1398.22C1687.73 1403.49 1705.15 1403.71 1722.16 1405.84C1734.09 1407.34 1746.3 1409.75 1756.5 1416.47C1767.31 1423.59 1775.85 1433.71 1782.97 1444.41C1793.16 1459.71 1800.9 1476.46 1810.38 1492.19C1815.71 1501.04 1821.61 1509.65 1828.75 1517.16C1832.5 1521.11 1836.66 1524.64 1840.84 1528.12C1845.56 1532.05 1850.36 1535.86 1855.28 1539.53C1868.04 1549.04 1881.45 1557.7 1895.28 1565.56C1902.65 1569.75 1910.16 1573.64 1917.72 1577.47C1927.66 1582.51 1937.65 1587.37 1947.88 1591.81C1969.07 1601.02 1990.88 1608.77 2013.06 1615.25C2042.53 1623.86 2072.67 1629.91 2102.91 1635.09C2148.85 1642.97 2195.48 1648.31 2242.16 1647.22C2259.79 1646.81 2277.4 1645.39 2294.84 1642.72C2303.9 1641.33 2312.94 1639.68 2321.81 1637.41C2384.95 1621.27 2438.33 1580.83 2489.44 1542.19C2513.92 1523.68 2538.97 1505.85 2562.53 1486.16C2581.76 1470.08 2599.91 1452.82 2616.16 1433.72C2628.44 1419.28 2639.8 1403.95 2649.91 1387.91C2655.9 1378.39 2661.38 1368.58 2666.72 1358.69C2672.11 1348.69 2677.22 1338.57 2682.09 1328.31C2691.77 1307.97 2700.47 1287.15 2707.81 1265.84C2720.95 1227.71 2730.23 1188.14 2735.69 1148.19C2738.06 1130.82 2739.75 1113.35 2740.66 1095.84C2740.93 1090.6 2741.12 1085.35 2741.25 1080.09C2741.36 1075.42 2741.37 1070.76 2741.53 1066.09C2741.94 1053.99 2743.04 1041.9 2744.16 1029.84C2747.26 996.292 2751.19 962.18 2746 928.625C2744.68 920.089 2742.69 911.745 2740.12 903.5C2736.68 896.306 2728.01 892.658 2717.69 893Z" fill="#010000" stroke="none"/>
</g>
<g opacity="1" >
<path d="M2743.78 705.188C2741.62 705.141 2739.44 705.414 2737.31 705.812C2734.79 706.285 2732.33 706.975 2729.91 707.812C2727.67 708.585 2725.52 709.56 2723.41 710.625C2721.55 711.56 2719.76 712.642 2718.03 713.781C2716.54 714.765 2715.12 715.88 2713.72 717C2708.66 721.054 2704.46 726.163 2701.25 731.781C2696.73 739.7 2693.92 748.537 2691.28 757.219C2687.36 770.143 2684.13 783.303 2681 796.438C2680 800.647 2679.08 804.889 2677.94 809.062C2676.42 814.591 2674.47 819.994 2672.03 825.188C2667.99 833.805 2662.55 841.687 2655.91 848.5C2649.87 854.685 2642.98 859.903 2635.81 864.688C2630.75 868.547 2630.08 876.645 2633.47 884.812C2631.91 885.158 2630.36 885.529 2628.81 885.906C2628.16 885.35 2627.53 884.753 2626.84 884.25C2625.1 882.978 2623.29 881.712 2621.28 880.906C2617.11 879.237 2612.39 879.16 2607.97 879.438C2600.86 879.884 2593.82 881.404 2586.94 883.188C2573.39 886.699 2560.13 891.437 2547.16 896.656C2534.52 901.737 2522.06 907.335 2510.16 913.969C2505.05 916.814 2499.99 919.845 2495.38 923.438C2492.35 925.787 2489.46 928.418 2487.25 931.562C2485.68 933.797 2484.21 936.546 2484.12 939.344C2484.1 940.041 2484.13 940.727 2484.28 941.406C2484.43 942.068 2484.69 942.728 2485.03 943.312C2485.37 943.892 2485.81 944.428 2486.31 944.875C2486.82 945.329 2487.42 945.692 2488.03 946C2490.39 947.188 2493.26 947.171 2495.81 946.844C2499.15 946.416 2502.38 945.33 2505.53 944.188C2509.6 942.709 2513.59 941.003 2517.56 939.281C2521.48 937.586 2525.37 935.861 2529.28 934.156C2528.02 937.385 2527.39 940.794 2527.84 944.344C2528.05 945.981 2528.77 948.483 2529.72 949.781C2530.31 950.59 2530.88 951.457 2531.62 952.125C2532.56 952.958 2533.69 953.538 2534.72 954.25C2534.72 954.253 2534.74 954.249 2534.75 954.25C2537.55 954.877 2540.3 955.653 2543.12 956.156C2543.76 956.27 2544.45 956.131 2545.09 956.094C2546.39 956.018 2547.36 955.918 2548.59 955.719C2550.56 955.402 2552.47 954.803 2554.41 954.312C2556.01 954.767 2557.66 955.061 2559.31 955.031C2564.91 954.93 2570.36 952.766 2575.44 950.594C2578.27 949.38 2581.03 947.956 2583.81 946.625C2593.89 943.913 2603.99 941.246 2614.09 938.656C2609.3 942.08 2604.55 945.77 2600.97 950.469C2596.87 955.84 2593.56 963.708 2597.97 969.906C2600.57 973.566 2605.2 975.203 2609.5 975.594C2616.56 976.234 2623.69 974.046 2630.06 971.188C2636.9 968.117 2643.29 964.033 2649.25 959.5C2658.35 952.58 2666.82 944.327 2673.22 934.812C2673.52 934.58 2673.86 934.391 2674.16 934.156C2675.09 935.05 2676.04 935.912 2676.97 936.812C2679.34 939.125 2681.71 941.452 2684.06 943.781C2683.29 944.751 2682.55 945.78 2682.06 946.906C2678.57 954.977 2685.46 962.599 2690.84 967.844C2691.71 968.687 2692.58 969.497 2693.47 970.312C2694.92 971.642 2696.42 972.926 2697.91 974.219C2695.46 973.716 2693 973.278 2690.56 972.719C2685.96 971.663 2681.37 970.549 2676.75 969.594C2672.94 968.807 2669.07 968.081 2665.19 967.812C2660.22 967.469 2655.05 968.178 2651.25 971.719C2650.42 972.489 2649.72 973.361 2649.16 974.344C2646.6 978.813 2649.26 983.099 2652.06 986.625C2653.4 988.308 2654.85 989.897 2656.34 991.438C2657.67 992.8 2659.03 994.033 2660.66 995.031C2665.78 998.177 2671.94 998.795 2677.5 1000.84C2679.35 1002.39 2682.77 1001.34 2685.16 998.5C2687.54 995.66 2687.97 992.113 2686.12 990.562C2684.38 989.922 2682.64 989.36 2680.84 988.875C2678.25 988.175 2675.6 987.594 2673.09 986.594C2670.39 985.513 2668.8 984.016 2666.81 981.906C2666.05 981.101 2665.34 980.253 2664.62 979.406C2666.57 979.731 2668.51 980.057 2670.44 980.469C2678.44 982.173 2686.38 984.311 2694.44 985.75C2699.99 986.741 2706.35 987.79 2711.66 985.281C2713.24 984.531 2714.71 983.539 2715.91 982.25C2716.65 981.452 2717.26 980.523 2717.72 979.531C2718.23 978.409 2718.48 977.168 2718.31 975.938C2718.13 974.582 2717.3 973.393 2716.44 972.375C2714.89 970.544 2713.04 968.955 2711.25 967.375C2710.45 966.671 2709.65 965.979 2708.84 965.281C2711.75 967.149 2714.82 968.667 2718.06 969.781C2721.64 972.679 2725.17 975.636 2728.88 978.375C2732.84 981.311 2736.95 984.191 2741.38 986.406C2746.43 988.938 2751.82 990.316 2757.25 987.906C2758.23 987.473 2759.2 986.905 2760.06 986.281C2762.65 984.417 2764.79 981.79 2765.25 978.562C2765.37 977.754 2764.94 976.76 2764.62 976.031C2763.97 974.519 2763.13 973.053 2762.31 971.625C2760.41 968.304 2758.39 965.071 2756.38 961.812C2758.11 960.517 2759.78 959.158 2761.34 957.656C2765.37 953.796 2768.79 949.117 2770.91 943.938C2771.8 941.739 2772.44 939.423 2772.72 937.062C2772.94 935.178 2772.92 933.25 2772.62 931.375C2771.66 925.31 2767.59 920.619 2762.69 917.188C2760.1 915.371 2757.28 913.922 2754.72 912.062C2754.07 911.589 2753.36 910.966 2752.78 910.5C2751.23 909.25 2749.68 908.041 2748.09 906.844C2744.53 904.159 2740.86 901.606 2737.22 899.031C2734.93 897.411 2732.64 895.783 2730.5 893.969C2729.74 893.328 2729.04 892.59 2728.34 891.875C2726.86 887.192 2725.39 882.507 2723.84 877.844C2723.84 877.834 2723.85 877.822 2723.84 877.812C2724.03 873.264 2725 868.682 2725.81 864.281C2727.27 856.407 2728.93 848.548 2730.75 840.75C2735.27 821.4 2740.87 802.345 2747.25 783.531C2747.21 783.637 2747.38 783.112 2747.34 783.219C2748.77 779.445 2750.07 775.618 2751.41 771.812C2753.74 765.162 2756.02 758.497 2758.16 751.781C2759.07 748.898 2759.97 745.999 2760.81 743.094C2761.45 740.912 2762.04 738.734 2762.59 736.531C2764.2 730.185 2766.06 722.258 2763.38 716C2763.03 715.205 2762.69 714.416 2762.22 713.688C2761.64 712.789 2761.04 711.909 2760.28 711.156C2759.28 710.158 2758.2 709.17 2756.97 708.469C2755.22 707.475 2753.39 706.609 2751.44 706.125C2748.95 705.506 2746.35 705.242 2743.78 705.188ZM2753.72 924.625C2753.78 924.641 2753.85 924.639 2753.91 924.656C2754.08 924.707 2754.38 924.693 2754.41 924.875C2754.41 924.878 2753.72 924.627 2753.72 924.625ZM2743.75 968.562C2744.88 970.397 2746.05 972.214 2747.16 974.062C2747.23 974.182 2747.27 974.318 2747.34 974.438C2745 973.019 2742.74 971.489 2740.53 969.875C2741.64 969.54 2742.66 968.973 2743.75 968.562Z" fill="#010000" stroke="none"/>
</g>
<g opacity="1" >
<path d="M2688.53 894.062C2685.03 893.798 2681.55 894.691 2678.41 896.188C2676.35 897.163 2674.46 898.446 2672.75 899.938C2672.03 900.565 2671.35 901.254 2670.72 901.969C2670.1 902.667 2669.28 903.519 2668.88 904.375C2668.31 905.57 2667.73 906.764 2667.19 907.969C2666.92 908.554 2666.83 909.227 2666.66 909.844C2666.43 910.659 2666.14 911.478 2665.88 912.281C2664.93 915.143 2663.9 917.967 2662.91 920.812C2660.82 926.763 2658.55 932.626 2656.34 938.531C2655.43 940.992 2654.38 943.431 2653.59 945.938C2653.3 946.879 2653 947.812 2652.81 948.781C2652.61 949.835 2652.67 950.504 2652.56 951.562C2652.42 952.975 2652.2 954.424 2651.91 955.812C2651.49 957.806 2650.91 959.739 2650.56 961.75C2650.22 963.694 2650.09 965.652 2650.09 967.625C2650.09 974.485 2651.46 981.405 2653.72 987.875C2655.11 991.857 2656.95 995.663 2658.81 999.438C2665.54 1010.39 2684.65 1010.88 2701.5 1000.53C2718.35 990.179 2726.54 972.922 2719.81 961.969C2717.04 958.394 2714.4 954.669 2712.12 950.75C2710.51 947.962 2709.24 944.988 2707.66 942.188C2706.96 940.956 2705.93 939.861 2705.34 938.562C2704.99 937.767 2704.76 936.8 2704.66 935.938C2704.58 935.293 2704.6 934.636 2704.47 934C2704.12 932.29 2703.31 930.691 2702.72 929.062C2702.18 927.587 2701.76 926.076 2701.34 924.562C2699.91 919.337 2698.93 914.013 2697.78 908.719C2697.53 907.551 2697.25 906.386 2697 905.219C2696.95 905.001 2696.82 904.011 2696.66 903.875C2696.64 903.864 2696.63 903.86 2696.62 903.875C2696.4 904.197 2696.41 904.678 2696.25 905.031C2696.13 905.302 2696 905.574 2695.88 905.844C2695.93 905.625 2695.98 905.406 2696.03 905.188C2696.35 903.842 2696.93 902.244 2696.69 900.844C2696.43 899.329 2695.93 897.949 2694.81 896.812C2694.52 896.519 2694.23 896.228 2693.91 895.969C2693.7 895.804 2693.47 895.678 2693.25 895.531C2693.25 895.529 2693.25 895.502 2693.25 895.5C2693.24 895.496 2693.23 895.505 2693.22 895.5C2693.08 895.421 2692.95 895.319 2692.81 895.25C2692.46 895.078 2692.12 894.917 2691.75 894.781C2690.7 894.395 2689.65 894.147 2688.53 894.062ZM2666.97 911.812C2667.18 911.951 2667.43 913.175 2667.5 913.438C2667.62 913.853 2667.73 914.272 2667.84 914.688C2667.59 914.24 2667.21 913.847 2667.12 913.438C2667.04 913.035 2666.95 912.624 2666.88 912.219C2666.87 912.205 2666.86 911.74 2666.97 911.812Z" fill="#010000" stroke="none"/>
</g>

</svg>
