<svg stroke-miterlimit="10" style="fill-rule:nonzero;clip-rule:evenodd;stroke-linecap:round;stroke-linejoin:round;" version="1.1" viewBox="700 0 2400 2400" xml:space="preserve" xmlns="http://www.w3.org/2000/svg"  xmlns:xlink="http://www.w3.org/1999/xlink">
<defs/>
<g id="Ebene-1" >
<path d="M2533.76 804.539C2532.81 804.539 2525.3 805.377 2524.39 802.665C2523.98 801.415 2530.08 790.644 2528.14 785.798C2523.11 773.233 2512.33 761.962 2500.03 755.813C2482.98 747.29 2458.71 748.636 2440.06 750.19C2431.75 750.882 2423.95 754.634 2415.7 755.813C2408.25 756.876 2400.34 755.308 2393.21 757.687C2373.2 764.354 2351.79 778.491 2336.98 793.294C2327.07 803.206 2320.36 816.612 2310.75 827.028C2294.52 844.609 2282.8 865.201 2269.52 885.124C2259.63 899.956 2247.02 913.02 2237.66 928.228C2229.05 942.213 2221.98 957.302 2213.29 971.332C2205.27 984.3 2195.85 996.355 2187.06 1008.81C2176.9 1023.2 2168.51 1039.01 2158.95 1053.79C2146.7 1072.72 2132.65 1089.86 2119.59 1108.14C2108.48 1123.7 2100.17 1141.02 2089.6 1156.87C2081.43 1169.13 2072.3 1180.75 2063.37 1192.47C2048.09 1212.53 2029.27 1230.09 2014.64 1250.57C2007.48 1260.6 2002.73 1272.18 1995.9 1282.43C1971.85 1318.51 1938.87 1344.85 1907.82 1374.26C1895.62 1385.82 1883.78 1397.91 1870.34 1407.99C1845.61 1426.54 1818.63 1438.43 1791.63 1452.97C1775.38 1461.72 1760.17 1472.73 1742.9 1479.21C1722.08 1487.02 1698.64 1489.58 1677.31 1496.08C1661.43 1500.91 1646.32 1508.06 1630.45 1512.94C1593.8 1524.22 1553.84 1527.27 1516.13 1533.56C1496.08 1536.9 1476.59 1540.26 1456.16 1539.18C1435.45 1538.09 1412.31 1536.02 1392.45 1529.81C1378.92 1525.58 1366.25 1519.6 1353.09 1514.82C1350.1 1513.73 1346.7 1514.06 1343.72 1512.94C1335.48 1509.85 1333.51 1504.32 1328.73 1497.95C1327.67 1496.54 1324.98 1495.97 1324.98 1494.2C1324.98 1493 1346.34 1488.95 1349.34 1490.45C1356.79 1494.18 1359.91 1504.16 1366.21 1509.19C1376.84 1517.7 1387.17 1526.72 1398.07 1535.43C1408.71 1543.94 1420.17 1552.53 1431.8 1559.8C1440.3 1565.11 1449.76 1569 1458.04 1574.79C1464.2 1579.1 1468.74 1585.47 1474.9 1589.78C1493.03 1602.47 1515.45 1609.41 1534.88 1619.77C1573.6 1640.42 1615.64 1653.37 1656.69 1668.49C1669.55 1673.23 1681.12 1681.2 1694.17 1685.36C1714.5 1691.83 1736.99 1690 1757.89 1692.86C1772.01 1694.78 1785.3 1700.64 1799.12 1704.1C1830.8 1712.02 1862.72 1709.47 1894.7 1713.47C1924.85 1717.24 1953.97 1724.71 1984.66 1724.71C2007.03 1724.71 2028.79 1716.96 2050.25 1711.6C2074.23 1705.6 2096.45 1697.78 2119.59 1689.11C2148.04 1678.44 2175.82 1671.61 2202.05 1655.37C2221.04 1643.61 2238.46 1629.24 2256.4 1616.02C2274.7 1602.53 2292.71 1589.07 2308.87 1572.91C2323.99 1557.8 2335.54 1539.79 2350.1 1524.19C2358.85 1514.82 2368.55 1506.26 2376.34 1496.08C2390.71 1477.29 2403.35 1456.94 2417.57 1437.98C2431.4 1419.54 2447.47 1402.49 2460.67 1383.63C2472.05 1367.38 2482.67 1350.92 2494.41 1334.9C2501.5 1325.23 2509.98 1316.6 2516.9 1306.79C2529.26 1289.27 2539.31 1270.56 2550.63 1252.45C2557.77 1241.02 2561.08 1239.31 2567.5 1228.08C2573.46 1217.65 2578.18 1206.53 2584.36 1196.22C2601.22 1168.13 2621.9 1143.58 2631.22 1111.89C2639.48 1083.8 2650.75 1056.04 2657.45 1027.55C2661.36 1010.96 2658.34 993.764 2659.33 976.955C2660.17 962.642 2665.69 946.334 2663.07 931.977C2662.47 928.667 2660.29 925.828 2659.33 922.606C2652.68 900.437 2644.12 878.863 2636.84 857.013C2633.52 847.059 2636.1 837.074 2633.09 827.028C2630.55 818.566 2625.19 812.336 2621.84 804.539C2616.28 791.549 2610.8 771.302 2597.48 763.309C2593.62 760.991 2587.08 756.468 2582.49 755.813C2571.7 754.271 2546.41 754.764 2537.51 761.435C2534.68 763.555 2531.6 765.77 2530.01 768.931C2527.63 773.693 2529.93 776.024 2524.39 780.176C2514.16 787.847 2508.65 786.162 2503.78 800.791C2500.84 809.605 2507.53 821.664 2507.53 830.776C2507.53 854.544 2506.17 876.653 2501.9 900.117C2497.55 924.049 2486.91 948.743 2486.91 973.206C2486.91 974.456 2486.91 970.708 2486.91 969.458C2486.91 968.209 2486.61 966.922 2486.91 965.71C2487.59 963 2489.78 960.864 2490.66 958.214C2494.32 947.222 2499.17 937.1 2503.78 926.354C2510.82 909.926 2519.4 894.102 2526.27 877.628C2528.85 871.417 2531.64 865.27 2533.76 858.887C2534.35 857.113 2536.31 844.423 2537.51 842.02C2540.77 835.504 2545.27 829.675 2548.76 823.28C2550.9 819.354 2562.2 795.277 2567.5 797.042C2576.52 800.05 2583.07 808.268 2591.86 812.035C2601.93 816.349 2613.1 821.157 2619.97 830.776C2626.08 839.326 2626.91 849.143 2629.34 858.887C2633.64 876.102 2639.86 892.99 2646.21 909.488C2652.67 926.301 2659.33 941.872 2659.33 960.088C2659.33 964.461 2659.33 968.834 2659.33 973.206C2659.33 974.456 2659.33 978.204 2659.33 976.955C2659.33 966.376 2656.05 959.024 2653.7 948.843C2649.11 928.925 2646.1 907.4 2636.84 888.873C2632.19 879.573 2625.59 871.381 2619.97 862.635C2614.63 854.327 2610.09 845.257 2603.1 838.272C2594.83 830.003 2583.26 825.063 2573.12 819.531C2566.72 816.043 2560.89 811.545 2554.38 808.287C2539.52 800.857 2510.9 796.561 2494.41 798.917C2489.12 799.671 2484.48 802.851 2479.41 804.539C2469.94 807.699 2460.46 809.331 2451.3 813.909C2442.27 818.425 2435.25 825.239 2426.94 830.776C2413.41 839.795 2399.82 848.01 2387.58 858.887C2377.73 867.645 2369.59 879.275 2363.22 890.747C2360.63 895.412 2359.29 900.676 2357.6 905.739C2357.16 907.065 2355.72 910.884 2355.72 909.488C2355.72 899.374 2363.99 892.757 2368.84 885.124C2371.09 881.589 2372.22 877.415 2374.47 873.88C2384.73 857.744 2400.5 842.172 2415.7 830.776C2430.47 819.698 2435.56 818.471 2451.3 808.287C2460.03 802.639 2468.24 796.07 2477.54 791.42C2490.58 784.899 2503.13 775.969 2516.9 770.805C2520.6 769.418 2526.37 770.591 2528.14 767.057C2532.97 757.392 2501.09 754.376 2496.28 753.939C2464.62 751.06 2432.21 760.313 2400.7 755.813C2396.2 755.169 2392.03 753.017 2387.58 752.064C2369.92 748.28 2365.22 749.025 2350.1 738.946C2349.08 738.267 2340.17 732.447 2344.48 729.575C2348.03 727.209 2359.97 730.636 2363.22 731.449C2372.72 733.824 2383.45 734.501 2393.21 735.198C2403.18 735.91 2413.21 734.643 2423.19 735.198C2447.01 736.521 2475.15 739.54 2498.16 746.442C2513.36 751.003 2532.16 765.296 2548.76 755.813C2560.98 748.824 2568.89 734.924 2576.87 723.953C2581.57 717.483 2587.27 711.766 2591.86 705.212C2603.56 688.495 2611.96 667.008 2616.22 647.116C2619.15 633.444 2617.85 619.693 2619.97 605.886C2623.06 585.814 2627.47 566.289 2627.47 545.915C2627.47 526.624 2626.04 506.715 2621.84 487.818C2620.46 481.595 2617.26 475.306 2616.22 469.078C2615.91 467.229 2616.59 465.293 2616.22 463.455C2615.74 461.032 2607.98 449.207 2604.98 452.211C2601.85 455.334 2606.36 460.939 2606.85 465.329C2607.47 470.917 2606.39 476.593 2606.85 482.196C2607.64 491.617 2609.43 500.927 2610.6 510.307C2612.54 525.861 2615.78 541.391 2614.35 557.16C2612.51 577.425 2607.16 595.98 2601.23 615.256C2598.67 623.572 2596.24 632.104 2591.86 639.619C2574.56 669.279 2551.46 695.276 2530.01 722.079C2522.78 731.127 2514.34 739.289 2503.78 744.568C2502.01 745.452 2499.99 745.708 2498.16 746.442C2496.86 746.961 2493.08 748.758 2494.41 748.316C2520.25 739.703 2545.48 725.572 2569.37 712.709C2572.58 710.982 2575.71 709.107 2578.74 707.086C2585.53 702.559 2588.93 698.536 2589.99 699.59C2590.51 700.111 2589.64 707.572 2589.99 708.96C2590.94 712.793 2592.35 716.506 2593.73 720.205C2600.36 737.887 2617.08 746.707 2623.72 763.309C2626.22 769.551 2628.9 783.702 2618.1 778.302"  opacity="1" stroke="#010000" stroke-linecap="round" stroke-linejoin="round" stroke-width="60" />
</g>
</svg>
